<svg xmlns="http://www.w3.org/2000/svg" class="cover" viewBox="0 0 400 600" role="img" aria-label="Okładka: Stare małe Dziecko, Tom I, Pusta ławka i Niebo, Philippe Usyk"><defs><linearGradient id="ocs" x1="0" y1="0" x2="0" y2="1"><stop offset="0" stop-color="#121a33"/><stop offset=".75" stop-color="#25315a"/><stop offset="1" stop-color="#2d3966"/></linearGradient><radialGradient id="ocg" cx=".5" cy=".5" r=".5"><stop offset="0" stop-color="#ffd98f" stop-opacity=".55"/><stop offset="1" stop-color="#ffd98f" stop-opacity="0"/></radialGradient></defs><rect width="400" height="600" fill="url(#ocs)"/><circle cx="145" cy="327" r="0.9" fill="#f4ecdc" opacity="0.55"/><circle cx="333" cy="266" r="0.7" fill="#f4ecdc" opacity="0.8"/><circle cx="30" cy="264" r="1.1" fill="#f4ecdc" opacity="0.8"/><circle cx="143" cy="122" r="1.4" fill="#f4ecdc" opacity="0.8"/><circle cx="305" cy="267" r="1.4" fill="#f4ecdc" opacity="0.8"/><circle cx="101" cy="142" r="0.9" fill="#f4ecdc" opacity="0.8"/><circle cx="223" cy="31" r="0.7" fill="#f4ecdc" opacity="0.35"/><circle cx="326" cy="45" r="1.1" fill="#f4ecdc" opacity="0.35"/><circle cx="161" cy="266" r="1.4" fill="#f4ecdc" opacity="0.8"/><circle cx="242" cy="226" r="1.4" fill="#f4ecdc" opacity="0.35"/><circle cx="211" cy="73" r="0.7" fill="#f4ecdc" opacity="0.35"/><circle cx="277" cy="135" r="1.1" fill="#f4ecdc" opacity="0.8"/><circle cx="247" cy="178" r="1.4" fill="#f4ecdc" opacity="0.8"/><circle cx="221" cy="317" r="1.1" fill="#f4ecdc" opacity="0.8"/><circle cx="323" cy="232" r="0.9" fill="#f4ecdc" opacity="0.55"/><circle cx="373" cy="38" r="1.1" fill="#f4ecdc" opacity="0.8"/><circle cx="367" cy="107" r="1.1" fill="#f4ecdc" opacity="0.8"/><circle cx="316" cy="315" r="0.7" fill="#f4ecdc" opacity="0.8"/><circle cx="359" cy="132" r="1.1" fill="#f4ecdc" opacity="0.55"/><circle cx="87" cy="56" r="1.4" fill="#f4ecdc" opacity="0.8"/><circle cx="271" cy="69" r="1.1" fill="#f4ecdc" opacity="0.35"/><circle cx="234" cy="101" r="0.7" fill="#f4ecdc" opacity="0.55"/><circle cx="242" cy="236" r="0.7" fill="#f4ecdc" opacity="0.35"/><circle cx="333" cy="47" r="1.4" fill="#f4ecdc" opacity="0.8"/><circle cx="324" cy="193" r="1.1" fill="#f4ecdc" opacity="0.8"/><circle cx="144" cy="42" r="1.1" fill="#f4ecdc" opacity="0.35"/><circle cx="63" cy="79" r="0.7" fill="#f4ecdc" opacity="0.35"/><circle cx="232" cy="173" r="1.1" fill="#f4ecdc" opacity="0.35"/><circle cx="45" cy="197" r="1.1" fill="#f4ecdc" opacity="0.55"/><circle cx="94" cy="217" r="1.4" fill="#f4ecdc" opacity="0.55"/><circle cx="290" cy="221" r="0.7" fill="#f4ecdc" opacity="0.8"/><circle cx="283" cy="162" r="1.4" fill="#f4ecdc" opacity="0.8"/><circle cx="145" cy="178" r="1.4" fill="#f4ecdc" opacity="0.55"/><circle cx="290" cy="179" r="1.1" fill="#f4ecdc" opacity="0.35"/><rect x="16" y="16" width="368" height="568" fill="none" stroke="#f0b34e" stroke-opacity=".35"/><text x="200" y="74" text-anchor="middle" font-family="Source Sans 3, sans-serif" font-size="15" letter-spacing="4.5" fill="#cfd3e2">PHILIPPE USYK</text><text x="200" y="158" text-anchor="middle" font-family="Literata, Georgia, serif" font-size="50" font-weight="500" fill="#fff">Stare małe</text><text x="200" y="214" text-anchor="middle" font-family="Literata, Georgia, serif" font-size="50" font-weight="500" fill="#fff">Dziecko</text><text x="200" y="252" text-anchor="middle" font-family="Literata, Georgia, serif" font-size="18" fill="#f0b34e">⁂</text><text x="200" y="290" text-anchor="middle" font-family="Source Sans 3, sans-serif" font-size="15" letter-spacing="3" fill="#f7cf86">TOM I</text><text x="200" y="322" text-anchor="middle" font-family="Literata, Georgia, serif" font-style="italic" font-size="24" fill="#f4ecdc">Pusta ławka i Niebo</text><circle cx="268" cy="430" r="150" fill="url(#ocg)"/><rect x="16" y="528" width="368" height="56" fill="#0b1020"/><ellipse cx="230" cy="530" rx="120" ry="9" fill="#ffd98f" opacity=".16"/><rect x="265" y="434" width="6" height="96" fill="#070b17"/><rect x="261" y="520" width="14" height="10" fill="#070b17"/><path d="M255 434 h26 l-5 -18 h-16z" fill="#070b17"/><rect x="259" y="420" width="18" height="13" fill="#ffe2a3"/><path d="M258 416 h20 l-10 -7z" fill="#070b17"/><rect x="128" y="456" width="5" height="40" fill="#070b17"/><rect x="223" y="456" width="5" height="40" fill="#070b17"/><rect x="120" y="458" width="116" height="8" rx="1.5" fill="#070b17"/><rect x="120" y="470" width="116" height="8" rx="1.5" fill="#070b17"/><rect x="115" y="494" width="126" height="8" rx="1.5" fill="#070b17"/><rect x="126" y="502" width="6" height="30" fill="#070b17"/><rect x="224" y="502" width="6" height="30" fill="#070b17"/><rect x="120" y="458" width="116" height="1.6" fill="#f0b34e" opacity="0.55"/><rect x="120" y="470" width="116" height="1.6" fill="#f0b34e" opacity="0.44000000000000006"/><rect x="115" y="494" width="126" height="1.8" fill="#f0b34e" opacity="0.55"/><g fill="#070b17"><ellipse cx="136" cy="486" rx="9" ry="6"/><circle cx="144" cy="481" r="4.4"/><path d="M148 481 l5 1.5 -5 1z"/><path d="M128 484 l-9 -5 2 7z"/></g><text x="200" y="566" text-anchor="middle" font-family="Source Sans 3, sans-serif" font-size="13" letter-spacing="3" fill="#9aa1b8">WYDAWNICTWO CISZA</text></svg>